<?xml version="1.0" encoding="UTF-8" standalone="no"?>
<!DOCTYPE svg PUBLIC "-//W3C//DTD SVG 1.1//EN" "http://www.w3.org/Graphics/SVG/1.1/DTD/svg11.dtd">
<svg width="100%" height="100%" viewBox="0 0 16 16" version="1.1" xmlns="http://www.w3.org/2000/svg" xmlns:xlink="http://www.w3.org/1999/xlink" xml:space="preserve" xmlns:serif="http://www.serif.com/" style="fill-rule:evenodd;clip-rule:evenodd;stroke-linejoin:round;stroke-miterlimit:2;">
    <path d="M8,16C12.389,16 16,12.389 16,8C16,3.611 12.389,0 8,0C3.611,0 -0,3.611 0,8C0,12.389 3.611,16 8,16M2.31,5.243C2.29,5.164 2.28,5.082 2.28,5C2.28,4.451 2.731,4 3.28,4L6,4C6.549,4 7,4.451 7,5L7,5.116C7.327,5.037 7.663,4.998 8,5C8.35,5 8.69,5.04 9,5.116L9,5C9,4.451 9.451,4 10,4L12.72,4C13.269,4 13.72,4.451 13.72,5C13.72,5.082 13.71,5.164 13.69,5.243L13.379,6.485C13.157,7.372 12.354,8 11.439,8L11,8C9.963,8 9.089,7.194 9.006,6.161C8.682,6.05 8.342,5.996 8,6C7.607,6 7.26,6.064 6.994,6.161C6.911,7.194 6.037,8 5,8L4.562,8C3.647,8 2.844,7.372 2.622,6.485L2.31,5.243ZM4.969,9.75C5.593,10.832 6.751,11.5 8,11.5C9.249,11.5 10.407,10.832 11.032,9.75C11.121,9.594 11.287,9.497 11.467,9.497C11.741,9.497 11.967,9.723 11.967,9.997C11.967,10.086 11.943,10.173 11.898,10.25C11.095,11.641 9.606,12.5 8,12.5C6.394,12.5 4.905,11.641 4.102,10.25C4.059,10.175 4.037,10.09 4.037,10.003C4.037,9.729 4.262,9.503 4.537,9.503C4.714,9.503 4.878,9.597 4.968,9.75L4.969,9.75Z" style="fill:rgb(136,77,179);fill-rule:nonzero;"/>
</svg>
